<svg width="89" height="87" viewBox="0 0 89 87" fill="none" xmlns="http://www.w3.org/2000/svg">
<path fill-rule="evenodd" clip-rule="evenodd" d="M44.5 0C19.9137 0 0 19.9138 0 44.5C0 64.1913 12.7381 80.8231 30.4269 86.7194C32.6519 87.1088 33.4862 85.7738 33.4862 84.6056C33.4862 83.5488 33.4306 80.0444 33.4306 76.3175C22.25 78.3756 19.3575 73.5919 18.4675 71.0888C17.9669 69.8094 15.7975 65.86 13.9062 64.8031C12.3487 63.9688 10.1237 61.9106 13.8506 61.855C17.355 61.7994 19.8581 65.0813 20.6925 66.4163C24.6975 73.1469 31.0944 71.2556 33.6531 70.0875C34.0425 67.195 35.2106 65.2481 36.49 64.1356C26.5887 63.0231 16.2425 59.185 16.2425 42.1638C16.2425 37.3244 17.9669 33.3194 20.8038 30.2044C20.3588 29.0919 18.8012 24.5306 21.2487 18.4119C21.2487 18.4119 24.9756 17.2438 33.4862 22.9731C37.0462 21.9719 40.8287 21.4713 44.6112 21.4713C48.3937 21.4713 52.1762 21.9719 55.7362 22.9731C64.2469 17.1881 67.9737 18.4119 67.9737 18.4119C70.4212 24.5306 68.8638 29.0919 68.4188 30.2044C71.2556 33.3194 72.98 37.2688 72.98 42.1638C72.98 59.2406 62.5781 63.0231 52.6769 64.1356C54.29 65.5263 55.6806 68.1963 55.6806 72.3681C55.6806 78.32 55.625 83.1038 55.625 84.6056C55.625 85.7738 56.4594 87.1644 58.6844 86.7194C67.5183 83.7368 75.1945 78.0592 80.6328 70.4857C86.071 62.9121 88.9973 53.8238 89 44.5C89 19.9138 69.0862 0 44.5 0Z" fill="black"/>
</svg>
