<svg width="82" height="82" viewBox="0 0 82 82" fill="none" xmlns="http://www.w3.org/2000/svg">
<path fill-rule="evenodd" clip-rule="evenodd" d="M1.01404e-06 6.85074C1.01404e-06 5.03381 0.721772 3.2913 2.00653 2.00654C3.29129 0.72178 5.0338 9.13299e-06 6.85073 9.13299e-06H75.1418C76.0422 -0.00146147 76.9341 0.17468 77.7663 0.518349C78.5986 0.862017 79.3549 1.36646 79.9919 2.00281C80.629 2.63915 81.1342 3.3949 81.4788 4.22677C81.8234 5.05865 82.0005 5.95032 82 6.85074V75.1418C82.001 76.0424 81.8244 76.9344 81.4803 77.7666C81.1362 78.5989 80.6314 79.3552 79.9948 79.9922C79.3581 80.6291 78.6021 81.1344 77.7701 81.4789C76.938 81.8234 76.0461 82.0005 75.1455 82H6.85073C5.95076 82 5.05962 81.8227 4.22821 81.4782C3.3968 81.1337 2.64141 80.6287 2.00521 79.9922C1.36902 79.3556 0.864474 78.6 0.520411 77.7684C0.176349 76.9368 -0.000488629 76.0455 1.01404e-06 75.1455V6.85074ZM32.4571 31.2644H43.5606V36.8404C45.1634 33.6349 49.2634 30.75 55.4245 30.75C67.2363 30.75 70.0355 37.1348 70.0355 48.8496V70.5498H58.0821V51.5184C58.0821 44.8466 56.4794 41.082 52.4092 41.082C46.7624 41.082 44.4142 45.141 44.4142 51.5184V70.5498H32.4571V31.2644ZM11.9571 70.0392H23.9142V30.75H11.9571V70.0355V70.0392ZM25.625 17.9356C25.6475 18.9594 25.4654 19.9774 25.0892 20.9298C24.713 21.8822 24.1503 22.7499 23.4342 23.4819C22.7181 24.214 21.8631 24.7956 20.9192 25.1927C19.9752 25.5897 18.9615 25.7943 17.9375 25.7943C16.9135 25.7943 15.8998 25.5897 14.9559 25.1927C14.0119 24.7956 13.1569 24.214 12.4408 23.4819C11.7247 22.7499 11.162 21.8822 10.7858 20.9298C10.4096 19.9774 10.2275 18.9594 10.25 17.9356C10.2943 15.9261 11.1236 14.0138 12.5605 12.6082C13.9973 11.2026 15.9275 10.4156 17.9375 10.4156C19.9475 10.4156 21.8777 11.2026 23.3145 12.6082C24.7514 14.0138 25.5807 15.9261 25.625 17.9356Z" fill="black"/>
</svg>
