<svg width="95" height="78" viewBox="0 0 95 78" fill="none" xmlns="http://www.w3.org/2000/svg">
<path d="M95 9.16076C91.5064 10.7088 87.7535 11.7548 83.808 12.2276C87.879 9.79166 90.9246 5.95783 92.3767 1.44144C88.5519 3.71326 84.3659 5.31238 80.0007 6.16926C77.0651 3.03494 73.1769 0.957466 68.9398 0.259371C64.7025 -0.438724 60.3534 0.281619 56.5675 2.30856C52.7817 4.33551 49.7709 7.55565 48.0027 11.469C46.2345 15.3824 45.8078 19.7701 46.7887 23.9509C39.0388 23.5618 31.4573 21.5475 24.5363 18.0386C17.6152 14.5298 11.5093 9.60493 6.61477 3.5836C4.9412 6.4705 3.9789 9.81764 3.9789 13.3823C3.97704 16.5914 4.76729 19.7513 6.27955 22.5816C7.79181 25.412 9.97931 27.8254 12.648 29.6076C9.55304 29.5091 6.52638 28.6728 3.81992 27.1683V27.4194C3.8196 31.9202 5.37647 36.2825 8.22634 39.7661C11.0762 43.2497 15.0436 45.64 19.4552 46.5315C16.5841 47.3085 13.574 47.423 10.6523 46.8662C11.897 50.7389 14.3215 54.1254 17.5865 56.5517C20.8515 58.9779 24.7935 60.3224 28.8607 60.397C21.9565 65.8169 13.4299 68.7568 4.65251 68.7439C3.09769 68.7443 1.54418 68.6535 0 68.472C8.90955 74.2005 19.2809 77.2407 29.8732 77.2289C65.7293 77.2289 85.331 47.5315 85.331 21.7753C85.331 20.9385 85.3101 20.0933 85.2724 19.2565C89.0852 16.4992 92.3763 13.0848 94.9916 9.17331L95 9.16076Z" fill="black"/>
</svg>
